# xmcd CD database file
#
# Track frame offsets:
#	150
#	17445
#	51690
#	90192
#	117401
#	177433
#	204384
#	236784
#	253953
#	290479
#
# Disc length: 4612 seconds
#
# Revision: 0
# Processed by: cddbd v1.5.2PL0 Copyright (c) Steve Scherf et al.
# Submitted via: CDex 1.70beta2
#
DISCID=8f12020a
DTITLE=Grover Washington, Jr. - Soulful Sax
DYEAR=2013
DGENRE=Jazz
TTITLE0=No Tears, In The End
TTITLE1=Loran's Dance
TTITLE2=Ain't No Sunshine-Theme From 'Man and Boy' ('Better Days')
TTITLE3=Black Frost
TTITLE4=Masterpiece
TTITLE5=The Sea Lion
TTITLE6=Inner City Blues (Make Me Wanna Holler)
TTITLE7=All The King's Horses
TTITLE8=Love Makes It Better
TTITLE9=Earth Tones
EXTD=YEAR: 2013
EXTT0=
EXTT1=
EXTT2=
EXTT3=
EXTT4=
EXTT5=
EXTT6=
EXTT7=
EXTT8=
EXTT9=
PLAYORDER=
